<svg width="1276" height="1236" viewBox="0 0 1276 1236" fill="none" xmlns="http://www.w3.org/2000/svg">
<path d="M510.015 967.472C510.621 966.652 511.348 965.8 512.187 964.936C511.202 965.844 510.476 966.709 510.015 967.472Z" fill="#EEEEEE"/>
<path d="M692.828 1234.77C691.553 1235.54 690.789 1236 690.789 1236C690.789 1236 691.647 1235.54 692.828 1234.77Z" fill="#EEEEEE"/>
<path d="M287.444 299.344C288.537 299.546 289.641 299.785 290.759 300.044C289.623 299.767 288.511 299.533 287.444 299.344Z" fill="#EEEEEE"/>
<path d="M747.772 1020.76C750.082 1017.08 753.037 1012.95 756.642 1008.53C760.859 1003.36 766.042 997.845 772.286 992.481C778.524 987.118 785.822 981.919 794.08 977.394C798.183 975.079 802.59 973.091 807.135 971.173C808.284 970.719 809.471 970.296 810.639 969.854C811.826 969.431 812.981 968.933 814.212 968.573C816.649 967.803 819.074 966.945 821.624 966.295C822.887 965.948 824.156 965.595 825.431 965.248C826.725 964.939 828.026 964.63 829.326 964.32C829.977 964.163 830.633 964.005 831.284 963.853C831.946 963.721 832.609 963.582 833.279 963.443C834.611 963.172 835.949 962.901 837.287 962.623C842.704 961.639 848.228 960.73 853.904 960.036C865.224 958.559 877.004 957.607 888.949 956.509C900.875 955.423 913.085 954.142 924.966 952.193C936.848 950.287 948.445 947.839 959.544 945.044C970.636 942.204 981.236 939.03 991.135 935.591C1001.04 932.159 1010.25 928.581 1018.71 924.789C1027.13 920.971 1034.74 916.983 1041.19 912.844C1047.65 908.736 1052.97 904.585 1057.08 900.843C1059.15 899 1060.87 897.196 1062.37 895.637C1063.82 894.028 1065.01 892.621 1065.94 891.454C1067.72 889.043 1068.53 887.668 1068.28 887.46C1067.71 886.942 1063.33 891.58 1054.54 897.77C1050.16 900.868 1044.67 904.307 1038.13 907.676C1031.61 911.077 1024 914.314 1015.59 917.406C1007.16 920.46 997.91 923.356 988.048 926.095C978.193 928.84 967.694 931.313 956.785 933.471C945.863 935.585 934.518 937.358 922.946 938.614C911.374 939.914 899.606 940.576 887.705 941.1C875.805 941.636 863.81 942.059 851.89 943.088C845.937 943.561 839.996 944.274 834.118 945.088C832.647 945.321 831.183 945.561 829.724 945.794C828.992 945.914 828.266 946.034 827.54 946.148C826.814 946.287 826.088 946.432 825.362 946.571C823.91 946.855 822.47 947.138 821.031 947.416C819.598 947.732 818.165 948.079 816.744 948.413C813.884 949.031 811.087 949.877 808.303 950.647C806.902 951.006 805.544 951.511 804.174 951.947C802.811 952.401 801.441 952.83 800.096 953.303C794.736 955.31 789.528 957.436 784.673 959.935C774.894 964.819 766.2 970.548 758.719 976.517C754.54 979.849 750.758 983.256 747.317 986.638C747.759 971.394 749.161 954.578 752.292 937.863C753.801 929.818 757.671 920.971 763.271 911.607C763.296 911.582 763.321 911.557 763.353 911.532C764.205 910.73 765.159 909.834 766.207 908.844C767.204 907.84 768.29 906.743 769.47 905.556C770.67 904.376 771.825 903.064 773.113 901.688C774.414 900.313 775.695 898.817 777.065 897.24C777.362 896.899 777.659 896.552 777.955 896.205C785.083 891.788 792.899 887.504 801.283 883.573C803.246 882.683 805.229 881.787 807.224 880.878C808.215 880.411 809.238 880.001 810.26 879.585C811.283 879.168 812.306 878.746 813.335 878.323C814.364 877.9 815.393 877.477 816.428 877.055C817.464 876.632 818.524 876.266 819.579 875.868C821.687 875.092 823.809 874.31 825.943 873.527C834.529 870.568 843.399 867.956 852.364 865.697C861.366 863.526 870.457 861.684 879.473 860.15C888.501 858.693 897.434 857.475 906.121 856.535C923.501 854.68 939.847 853.739 953.881 853.096C967.922 852.478 979.652 852.13 987.872 851.783C996.091 851.443 1000.79 851.121 1000.79 850.786C1000.79 850.465 996.085 850.118 987.853 849.783C979.626 849.455 967.871 849.127 953.761 849.083C939.651 849.064 923.173 849.354 905.534 850.61C896.714 851.247 887.617 852.175 878.387 853.361C869.169 854.629 859.832 856.219 850.558 858.169C841.29 860.213 832.098 862.636 823.165 865.444C820.942 866.195 818.733 866.94 816.536 867.678C815.437 868.057 814.332 868.404 813.253 868.814C812.173 869.224 811.094 869.634 810.021 870.038C808.947 870.448 807.874 870.852 806.807 871.256C805.74 871.66 804.667 872.057 803.631 872.511C801.535 873.395 799.458 874.272 797.4 875.143C795.708 875.881 794.042 876.638 792.388 877.408C795.658 872.72 798.998 867.628 802.35 862.157C812.167 851.588 822.698 840.968 833.266 830.588C837.275 827.452 841.656 824.115 846.398 820.657C848.039 819.42 849.763 818.209 851.518 816.978C853.273 815.741 855.059 814.486 856.878 813.205C858.696 811.924 860.596 810.693 862.496 809.4C864.409 808.132 866.322 806.794 868.317 805.519C872.307 802.976 876.367 800.295 880.628 797.739C882.756 796.458 884.871 795.095 887.061 793.833C889.246 792.552 891.455 791.265 893.678 789.965C902.617 784.88 911.986 779.844 921.563 775.345C923.956 774.235 926.361 773.087 928.754 772.108C929.954 771.597 931.153 771.086 932.353 770.575C933.533 770.127 934.714 769.673 935.894 769.225C937.075 768.77 938.249 768.31 939.474 767.931L943.117 766.726C945.598 765.994 948.073 765.237 950.636 764.6C970.996 759.262 993.718 757.053 1015.61 752.068C1016.98 751.746 1018.33 751.462 1019.7 751.115C1021.06 750.768 1022.41 750.428 1023.76 750.081C1026.46 749.368 1029.12 748.573 1031.75 747.809C1033.05 747.386 1034.34 746.97 1035.63 746.553C1036.92 746.131 1038.2 745.739 1039.45 745.266C1040.71 744.812 1041.96 744.358 1043.19 743.91C1043.81 743.682 1044.43 743.455 1045.04 743.228C1045.65 742.982 1046.26 742.742 1046.86 742.502C1056.54 738.685 1065.37 734.35 1073.21 729.87C1081.06 725.39 1087.93 720.771 1093.78 716.379C1095.23 715.275 1096.61 714.165 1097.95 713.111C1099.3 712.07 1100.55 711.003 1101.75 709.969C1102.95 708.94 1104.11 707.962 1105.18 706.997C1106.23 706.006 1107.24 705.066 1108.2 704.17C1110.12 702.397 1111.71 700.681 1113.11 699.21C1113.8 698.466 1114.45 697.784 1115 697.128C1115.56 696.465 1116.06 695.86 1116.49 695.304C1118.23 693.09 1118.99 691.752 1118.65 691.399C1118.31 691.045 1116.87 691.664 1114.48 693.121C1113.89 693.487 1113.23 693.897 1112.52 694.364C1111.8 694.819 1111.02 695.311 1110.17 695.847C1108.47 696.913 1106.59 698.207 1104.41 699.545C1103.33 700.226 1102.2 700.945 1101.01 701.703C1099.81 702.428 1098.56 703.192 1097.24 703.981C1095.94 704.776 1094.58 705.602 1093.15 706.404C1091.72 707.218 1090.24 708.057 1088.71 708.928C1082.56 712.316 1075.5 715.862 1067.63 719.225C1051.91 725.958 1032.89 731.902 1012.06 734.583C1009.46 734.962 1006.81 735.24 1004.16 735.568C1001.49 735.839 998.812 736.142 996.091 736.382C990.668 736.899 985.144 737.341 979.544 737.833C973.951 738.313 968.262 738.836 962.53 739.505C956.798 740.155 950.996 740.982 945.181 742.061C942.271 742.565 939.36 743.228 936.45 743.865C934.998 744.212 933.546 744.597 932.094 744.963C930.635 745.31 929.196 745.752 927.763 746.194C926.324 746.629 924.884 747.071 923.451 747.506C922.056 747.992 920.66 748.472 919.272 748.951C916.468 749.885 913.785 750.945 911.083 751.98C915.193 746.471 919.208 739.518 923.06 731.435C928.085 723.68 932.952 715.547 937.599 707.079C945.188 693.298 952.082 678.634 958.458 663.54C961.129 657.205 963.673 650.788 966.122 644.314C970.27 640.724 975.51 636.566 981.817 632.351C982.941 631.612 984.071 630.817 985.258 630.073C986.457 629.341 987.676 628.596 988.913 627.839C989.538 627.467 990.151 627.063 990.795 626.703C991.439 626.344 992.089 625.978 992.745 625.618C994.065 624.899 995.378 624.123 996.748 623.41C1002.23 620.539 1008.17 617.832 1014.45 615.358C1020.76 612.96 1027.42 610.859 1034.31 609.156C1036.04 608.758 1037.77 608.36 1039.51 607.957C1041.26 607.629 1043.02 607.3 1044.79 606.972C1048.31 606.329 1051.9 605.843 1055.51 605.439C1069.95 603.805 1084.74 603.647 1098.72 603.231C1105.71 603.022 1112.51 602.776 1118.98 602.322C1125.44 601.874 1131.57 601.237 1137.22 600.378C1148.51 598.681 1157.79 596.025 1164.02 593.539C1170.27 591.084 1173.58 589.09 1173.45 588.838C1173.3 588.497 1169.73 589.873 1163.37 591.652C1157.02 593.457 1147.82 595.394 1136.69 596.403C1131.13 596.914 1125.09 597.217 1118.71 597.337C1112.32 597.457 1105.59 597.388 1098.62 597.28C1084.68 597.072 1069.75 596.618 1054.71 597.747C1050.95 598.025 1047.19 598.397 1043.45 598.934C1041.58 599.217 1039.72 599.495 1037.87 599.773C1036.02 600.132 1034.18 600.486 1032.35 600.839C1025.04 602.379 1017.93 604.36 1011.18 606.676C1004.46 609.067 998.074 611.73 992.171 614.601C990.694 615.314 989.273 616.084 987.853 616.809C987.145 617.175 986.445 617.541 985.744 617.901C985.049 618.261 984.38 618.671 983.705 619.043C982.36 619.807 981.041 620.564 979.746 621.302C978.458 622.059 977.234 622.861 976.015 623.611C975.15 624.154 974.304 624.697 973.477 625.239C973.698 624.987 973.919 624.741 974.14 624.482C974.986 623.517 975.838 622.545 976.691 621.567C977.549 620.589 978.471 619.655 979.368 618.683C980.27 617.718 981.186 616.753 982.101 615.775C983.017 614.803 983.932 613.806 984.904 612.866C986.83 610.954 988.774 609.01 990.744 607.054C992.777 605.155 994.829 603.237 996.9 601.293C997.922 600.309 999.002 599.375 1000.08 598.429C1001.15 597.482 1002.24 596.529 1003.32 595.577C1012.04 587.98 1021.48 580.584 1031.34 573.429C1041.24 566.311 1051.6 559.484 1062.22 553.092C1083.4 540.315 1106.14 529.512 1126.38 516.867C1131.44 513.731 1136.33 510.45 1141.02 507.087C1145.72 503.743 1150.13 500.19 1154.35 496.669C1162.72 489.533 1170.05 482.137 1176.36 474.925C1182.67 467.713 1187.93 460.671 1192.27 454.223C1194.47 451.017 1196.35 447.9 1198.11 445.042C1199.77 442.12 1201.36 439.476 1202.62 436.99C1203.26 435.76 1203.87 434.592 1204.45 433.495C1204.99 432.378 1205.5 431.33 1205.96 430.352C1206.42 429.374 1206.85 428.472 1207.24 427.639C1207.62 426.806 1207.94 426.03 1208.23 425.348C1209.38 422.597 1209.92 421.102 1209.77 421.032C1209.62 420.963 1208.78 422.326 1207.34 424.919C1206.97 425.563 1206.59 426.301 1206.14 427.09C1205.69 427.879 1205.19 428.737 1204.64 429.671C1204.11 430.605 1203.54 431.602 1202.93 432.668C1202.29 433.715 1201.61 434.832 1200.89 436.012C1199.49 438.391 1197.77 440.928 1195.99 443.723C1194.11 446.461 1192.11 449.446 1189.81 452.506C1185.26 458.671 1179.81 465.391 1173.38 472.25C1166.95 479.109 1159.54 486.119 1151.16 492.833C1146.93 496.145 1142.54 499.477 1137.86 502.613C1133.2 505.762 1128.33 508.841 1123.28 511.788C1113.18 517.706 1102.42 523.272 1091.43 528.869C1080.44 534.472 1069.22 540.169 1058.27 546.435C1047.32 552.695 1036.64 559.415 1026.4 566.463C1016.18 573.549 1006.38 580.919 997.266 588.547C996.129 589.507 995.006 590.466 993.882 591.412C992.758 592.365 991.628 593.305 990.555 594.289C988.383 596.246 986.23 598.183 984.103 600.095C982.751 601.388 981.413 602.675 980.075 603.95C983.648 592.643 987.007 581.348 990.264 570.255C992.531 562.544 994.778 554.922 997.038 547.432C999.305 539.949 1001.61 532.598 1003.96 525.417C1006.33 518.243 1008.78 511.264 1011.29 504.487C1013.83 497.723 1016.47 491.192 1019.19 484.901C1019.89 483.343 1020.58 481.797 1021.27 480.263C1021.62 479.494 1021.96 478.73 1022.3 477.967C1022.66 477.216 1023.02 476.465 1023.37 475.714C1024.08 474.219 1024.8 472.736 1025.5 471.266C1026.24 469.814 1026.97 468.376 1027.7 466.95C1028.07 466.237 1028.43 465.524 1028.79 464.817C1029.17 464.116 1029.54 463.422 1029.92 462.735C1030.67 461.353 1031.41 459.983 1032.15 458.627C1032.9 457.276 1033.69 455.97 1034.44 454.652C1035.21 453.352 1035.92 452.027 1036.72 450.784C1042.88 440.656 1049.22 431.841 1055.31 424.452C1061.4 417.051 1067.24 411.088 1072.22 406.349C1082.31 397.042 1088.86 392.588 1088.44 391.938C1088.17 391.49 1080.85 394.815 1069.6 403.333C1064.06 407.674 1057.56 413.322 1050.77 420.515C1043.97 427.696 1036.88 436.397 1029.94 446.505C1029.05 447.749 1028.24 449.067 1027.37 450.367C1026.52 451.68 1025.63 452.992 1024.79 454.342C1023.95 455.705 1023.11 457.075 1022.26 458.463C1021.84 459.157 1021.41 459.857 1020.98 460.558C1020.57 461.271 1020.16 461.984 1019.75 462.697C1018.93 464.135 1018.1 465.58 1017.26 467.038C1016.46 468.521 1015.66 470.01 1014.84 471.518C1014.44 472.269 1014.03 473.026 1013.62 473.789C1013.23 474.559 1012.84 475.329 1012.45 476.105C1011.67 477.657 1010.88 479.216 1010.08 480.787C1006.99 487.122 1003.98 493.71 1001.09 500.518C998.213 507.339 995.403 514.362 992.707 521.562C981.868 550.354 972.524 581.745 961.16 612.134C960.674 613.434 960.182 614.727 959.689 616.027C962.208 607.679 964.405 599.072 966.009 590.365C967.656 581.537 968.831 572.678 969.607 563.882C970.384 555.086 970.807 546.353 971.021 537.734C971.23 529.115 971.223 520.615 971.154 512.267C971.097 508.096 971.047 503.951 970.99 499.83C970.908 495.716 970.826 491.634 970.744 487.583C969.973 455.182 968.376 425.027 966.722 399.226C965.036 373.424 963.313 351.971 961.905 336.972C960.491 321.974 959.386 313.424 958.736 313.461C958.086 313.499 957.846 322.125 957.915 337.199C957.978 352.274 958.351 373.79 958.704 399.604C959.026 425.418 959.317 455.522 958.83 487.734C958.755 491.76 958.685 495.817 958.61 499.906C958.509 503.995 958.408 508.109 958.307 512.248C958.193 516.23 958.174 573.265 935.086 635.146C929.221 650.858 921.847 665.661 914.682 679.877C913.779 681.65 912.876 683.417 911.98 685.171C911.083 686.931 910.206 688.679 909.259 690.389C907.403 693.822 905.559 697.223 903.741 700.586C901.841 703.899 899.966 707.18 898.11 710.417C897.2 712.045 896.216 713.616 895.262 715.193C894.303 716.764 893.356 718.329 892.409 719.882C891.455 721.427 890.553 722.992 889.574 724.488C888.602 725.989 887.636 727.479 886.682 728.961C884.757 731.914 882.926 734.861 880.956 737.644C879.025 740.452 877.124 743.209 875.262 745.922C873.317 748.573 871.417 751.172 869.548 753.715C868.608 754.977 867.717 756.264 866.758 757.476C865.805 758.687 864.864 759.892 863.936 761.079C862.067 763.445 860.287 765.792 858.469 768.013C856.625 770.209 854.832 772.355 853.09 774.437C852.218 775.478 851.36 776.5 850.514 777.516C849.636 778.494 848.771 779.459 847.919 780.412C846.271 782.242 844.693 784.028 843.146 785.731C841.991 786.407 840.842 787.082 839.724 787.776C838.601 788.47 837.496 789.151 836.397 789.833C837.584 786.432 838.746 782.987 839.863 779.478C842.307 771.705 844.56 763.66 846.536 755.362C848.512 747.064 850.211 738.515 851.511 729.719C851.808 727.51 852.105 725.295 852.401 723.081C852.629 720.916 852.85 718.746 853.077 716.569C853.298 714.392 853.525 712.215 853.746 710.032C853.929 707.849 854.062 705.659 854.226 703.469C855.489 685.934 855.659 668.216 855.116 650.7C854.011 615.642 850.173 581.468 846.991 549.906C846.593 545.968 846.202 542.056 845.817 538.188C845.444 534.333 845.078 530.509 844.718 526.729C844.384 522.962 844.055 519.233 843.727 515.555C843.55 513.681 843.43 511.971 843.285 510.204C843.171 508.456 843.033 506.714 842.944 504.992C842.136 491.211 842.37 478.32 843.575 466.659C844.788 454.999 846.978 444.581 849.693 435.621C851.057 431.141 852.509 427.008 854.03 423.26C855.564 419.518 857.073 416.104 858.576 413.088C861.53 407.018 864.239 402.406 866.032 399.169C866.89 397.528 867.597 396.285 867.951 395.339C868.317 394.405 868.393 393.818 868.147 393.61C867.901 393.401 867.332 393.566 866.455 394.089C865.59 394.626 864.352 395.477 862.938 396.758C860.041 399.276 856.101 403.302 851.783 409.063C849.598 411.927 847.376 415.253 845.103 418.994C842.843 422.742 840.634 426.951 838.506 431.595C834.257 440.871 830.526 451.945 827.874 464.445C827.792 464.836 827.717 465.24 827.641 465.637C826.081 462.154 824.547 458.173 823.304 453.636C821.359 446.789 819.888 438.801 819.301 429.942C818.682 421.089 819.03 411.378 820.393 401.207C821.025 396.121 822.06 390.941 823.215 385.628C823.859 382.984 824.446 380.302 825.198 377.62C825.564 376.276 825.898 374.92 826.29 373.57C826.681 372.219 827.079 370.863 827.477 369.5C829.112 364.054 830.898 358.539 832.868 352.98C834.806 347.415 836.896 341.806 839.043 336.146C843.336 324.826 847.9 313.31 852.098 301.574C856.29 289.825 860.053 277.905 863.273 266.049C866.505 254.193 869.163 242.393 871.341 230.903C875.697 207.916 877.951 186.166 878.829 167.501C879.271 158.125 879.208 149.385 878.248 141.631C877.825 137.756 877.093 134.134 876.304 130.822C875.83 129.175 875.47 127.578 874.921 126.096C874.668 125.351 874.422 124.625 874.176 123.912C873.923 123.206 873.62 122.531 873.349 121.868C871.152 116.574 868.639 112.75 866.733 110.34C866.291 109.709 865.798 109.229 865.413 108.788C865.015 108.352 864.674 107.993 864.397 107.709C863.841 107.141 863.525 106.876 863.462 106.933C863.399 106.989 863.595 107.362 864.018 108.024C864.232 108.359 864.504 108.762 864.826 109.242C865.142 109.728 865.558 110.252 865.924 110.914C867.528 113.47 869.675 117.35 871.486 122.587C871.707 123.244 871.96 123.906 872.168 124.6C872.364 125.301 872.566 126.014 872.768 126.752C873.216 128.209 873.488 129.774 873.86 131.383C874.46 134.633 875.009 138.154 875.255 141.94C875.855 149.499 875.59 158.036 874.826 167.268C873.298 185.737 870.413 207.184 865.501 229.755C863.046 241.037 860.123 252.609 856.657 264.213C853.203 275.817 849.226 287.452 844.832 298.93C840.431 310.407 835.633 321.772 831.075 333.079C828.79 338.733 826.561 344.367 824.465 349.996C822.344 355.612 820.4 361.234 818.6 366.818C818.165 368.219 817.723 369.613 817.293 371.001C816.864 372.39 816.479 373.79 816.075 375.179C815.248 377.942 814.572 380.738 813.853 383.476C812.539 388.991 811.34 394.462 810.57 399.856C808.922 410.627 808.354 421.007 808.853 430.592C808.985 433.394 809.212 436.113 809.509 438.77C808.164 435.76 806.801 432.775 805.424 429.822C801.517 421.462 797.426 413.29 793.36 405.491C789.307 397.68 785.342 390.177 781.75 382.845C778.151 375.519 774.919 368.37 772.255 361.36C769.647 354.343 767.457 347.447 765.802 340.682C765.361 338.998 765.045 337.307 764.66 335.647C764.477 334.814 764.294 333.988 764.11 333.167C763.946 332.341 763.814 331.514 763.662 330.694C763.372 329.053 763.081 327.432 762.791 325.829C762.564 324.214 762.343 322.623 762.122 321.046C762.014 320.257 761.888 319.475 761.8 318.699C761.724 317.916 761.642 317.14 761.566 316.37C761.408 314.831 761.257 313.31 761.105 311.808C761.011 310.307 760.922 308.824 760.828 307.36C760.783 306.628 760.733 305.902 760.689 305.183C760.645 304.464 760.651 303.744 760.626 303.038C760.259 291.68 760.948 281.748 761.913 273.621C762.04 272.605 762.16 271.614 762.28 270.655C762.336 270.176 762.4 269.702 762.456 269.235C762.532 268.769 762.608 268.314 762.677 267.866C762.961 266.062 763.227 264.371 763.473 262.793C764.054 259.657 764.546 256.982 764.95 254.817C765.872 250.508 766.219 248.148 765.91 248.053C765.6 247.959 764.616 250.123 763.037 254.306C762.652 255.354 762.292 256.546 761.876 257.859C761.472 259.171 760.992 260.597 760.562 262.162C760.158 263.733 759.723 265.424 759.256 267.223C759.142 267.677 759.022 268.131 758.908 268.598C758.807 269.065 758.706 269.545 758.605 270.031C758.403 271.002 758.195 271.999 757.98 273.021C756.32 281.224 754.925 291.371 754.628 303.113C754.609 303.845 754.565 304.59 754.565 305.334C754.571 306.079 754.571 306.83 754.577 307.587C754.59 309.101 754.596 310.641 754.609 312.206C754.678 313.764 754.754 315.348 754.83 316.957C754.868 317.759 754.906 318.573 754.944 319.386C754.994 320.2 755.083 321.014 755.146 321.841C755.291 323.488 755.436 325.154 755.588 326.845C755.802 328.53 756.023 330.227 756.244 331.956C756.358 332.82 756.459 333.685 756.591 334.555C756.737 335.42 756.888 336.291 757.04 337.168C757.355 338.916 757.608 340.701 757.987 342.481C759.382 349.623 761.364 356.968 763.788 364.458C766.27 371.929 769.332 379.494 772.722 387.142C776.112 394.796 779.83 402.532 783.574 410.438C787.331 418.338 791.037 426.434 794.591 434.775C801.706 451.44 808.291 468.962 814.067 487.034C817.394 497.477 820.463 508.09 823.076 518.823C823.089 521.928 823.108 525.051 823.121 528.212C823.177 532.061 823.234 535.955 823.291 539.886C823.373 543.81 823.455 547.773 823.544 551.773C823.948 569.22 824.541 587.273 824.819 605.521C824.27 603.338 823.714 601.142 823.152 598.921C822.357 596.145 821.549 593.343 820.74 590.522C817.344 579.266 813.196 567.807 808.152 556.493C806.845 553.685 805.589 550.84 804.219 548.044C802.811 545.268 801.441 542.454 799.932 539.722C797.015 534.194 793.84 528.805 790.626 523.455C777.608 502.146 762.873 482.251 749.741 463.359C743.169 453.913 736.982 444.714 731.458 435.81C725.922 426.913 721.086 418.3 717.07 410.148C708.951 393.868 704.469 379.387 702.127 369.115C701.975 368.471 701.83 367.846 701.685 367.241C701.533 366.635 701.401 366.042 701.3 365.468C701.079 364.313 700.87 363.234 700.675 362.224C700.479 361.215 700.296 360.287 700.126 359.429C699.987 358.571 699.867 357.788 699.753 357.088C699.292 354.293 698.97 352.804 698.806 352.816C698.642 352.829 698.636 354.35 698.768 357.202C698.806 357.915 698.85 358.71 698.894 359.587C698.97 360.464 699.084 361.41 699.198 362.445C699.317 363.474 699.444 364.584 699.583 365.764C699.639 366.357 699.734 366.963 699.848 367.588C699.955 368.212 700.062 368.85 700.17 369.512C701.881 380.05 705.795 395.023 713.453 411.877C717.228 420.313 721.862 429.223 727.184 438.397C732.5 447.578 738.479 457.043 744.83 466.716C757.513 486.056 771.705 506.248 783.997 527.436C787.021 532.755 790.014 538.087 792.728 543.526C794.136 546.221 795.405 548.972 796.712 551.691C797.981 554.43 799.13 557.206 800.342 559.945C804.983 570.987 808.77 582.168 811.845 593.147C812.577 595.905 813.303 598.637 814.023 601.344C814.654 604.076 815.279 606.777 815.898 609.452C816.05 610.121 816.207 610.79 816.359 611.452C816.492 612.121 816.63 612.79 816.763 613.459C817.028 614.79 817.293 616.115 817.552 617.434C817.817 618.753 818.076 620.059 818.335 621.359C818.581 622.659 818.783 623.965 819.004 625.252C820.86 635.55 822.035 645.4 823.013 654.492C823.36 657.95 823.663 661.3 823.929 664.537C823.24 676.747 822.161 688.831 820.57 700.636C820.299 702.649 820.052 704.656 819.762 706.65C819.434 708.637 819.105 710.619 818.777 712.594C818.449 714.569 818.127 716.537 817.805 718.5C817.426 720.411 817.053 722.317 816.675 724.216C815.077 731.801 813.133 739.247 810.942 746.503C808.752 753.759 806.321 760.826 803.732 767.666C801.112 774.5 798.335 781.106 795.462 787.454C791.958 795.165 788.309 802.491 784.591 809.375C784.578 808.876 784.565 808.384 784.553 807.886C784.338 801.771 783.903 795.524 783.448 789.24C783.24 786.123 783.025 782.974 782.81 779.819C782.646 776.664 782.432 773.497 782.312 770.329C781.731 757.652 781.503 744.957 781.636 733.05C781.75 721.143 782.16 710.032 782.665 700.51C783.682 681.467 784.938 668.784 784.243 668.696C783.928 668.658 783.151 671.769 782.11 677.271C781.087 682.773 779.837 690.673 778.663 700.207C777.488 709.741 776.421 720.904 775.683 732.911C774.925 744.913 774.546 757.753 774.578 770.607C774.559 773.818 774.641 777.03 774.673 780.236C774.755 783.435 774.837 786.621 774.919 789.782C775.114 796.073 775.298 802.232 775.279 808.151C775.266 814.063 775.045 819.736 774.527 825.03C774.458 825.755 774.376 826.474 774.294 827.187C772.375 830.286 770.468 833.251 768.574 836.091C757.747 844.268 747.917 852.534 740.019 860.661C717.695 883.629 703.465 914.68 695.517 936.424C695.706 934.045 695.889 931.641 696.085 929.206C696.319 926.423 696.489 923.59 696.779 920.738C697.101 917.886 697.423 915.002 697.745 912.081C698.074 909.166 698.402 906.213 698.73 903.234C698.894 901.745 699.065 900.25 699.229 898.748C699.399 897.246 699.545 895.732 699.785 894.224C703.011 870.025 707.594 844.376 713.263 818.94C719.23 793.575 726.269 768.455 733.87 745.203C734.306 743.739 734.83 742.307 735.328 740.875C735.827 739.442 736.332 738.022 736.825 736.603C737.816 733.77 738.801 730.962 739.773 728.179C740.745 725.396 741.705 722.652 742.652 719.932C743.63 717.225 744.697 714.594 745.695 711.969C747.709 706.732 749.666 701.64 751.56 696.712C751.793 696.093 752.033 695.481 752.267 694.869C752.507 694.257 752.772 693.664 753.018 693.064C753.523 691.872 754.022 690.686 754.514 689.512C755.499 687.165 756.471 684.855 757.418 682.603C759.325 678.091 761.086 673.737 762.86 669.636C764.704 665.566 766.453 661.704 768.094 658.076C769.717 654.435 771.238 651.028 772.64 647.873C772.816 647.476 772.987 647.084 773.157 646.699C773.341 646.321 773.524 645.942 773.7 645.57C774.06 644.825 774.407 644.093 774.748 643.38C775.424 641.954 776.074 640.591 776.687 639.298C781.567 628.931 784.117 622.854 783.543 622.539C782.968 622.223 779.25 627.656 773.145 637.455C772.387 638.68 771.585 639.973 770.746 641.33C770.329 642.011 769.9 642.705 769.464 643.418C769.249 643.772 769.029 644.131 768.808 644.497C768.599 644.869 768.385 645.242 768.176 645.62C766.478 648.655 764.647 651.937 762.69 655.445C760.745 658.966 758.681 662.714 756.503 666.67C754.407 670.664 752.324 674.924 750.089 679.347C748.984 681.562 747.848 683.827 746.699 686.13C746.124 687.285 745.543 688.452 744.956 689.626C744.666 690.212 744.363 690.799 744.085 691.399C743.813 691.998 743.536 692.604 743.258 693.216C741.048 698.081 738.763 703.116 736.408 708.29C735.246 710.884 734.015 713.496 732.872 716.178C731.761 718.878 730.638 721.604 729.501 724.368C728.365 727.132 727.222 729.927 726.06 732.747C725.48 734.161 724.899 735.574 724.318 737C723.737 738.426 723.131 739.852 722.613 741.316C713.705 764.511 705.384 789.732 698.206 815.337C691.331 841.019 685.618 867.047 681.394 891.693C681.091 893.227 680.883 894.766 680.649 896.3C680.422 897.833 680.195 899.36 679.967 900.874C679.513 903.909 679.071 906.919 678.623 909.898C678.181 912.876 677.745 915.823 677.309 918.731C676.912 921.647 676.628 924.536 676.287 927.389C676.059 929.414 675.832 931.414 675.605 933.396C668.136 914.119 658.824 888.248 653.016 865.388C654.203 859.721 655.668 853.424 657.296 846.767C659.317 838.709 661.665 830.166 664.197 821.666C666.779 813.186 669.544 804.756 672.297 796.9C675.1 789.069 677.789 781.775 680.251 775.579C685.106 763.161 688.591 754.952 687.966 754.655C687.417 754.39 682.682 762.013 676.564 774.001C673.471 779.983 670.15 787.107 666.722 794.811C663.351 802.535 659.979 810.883 656.817 819.332C653.805 827.541 650.996 835.832 648.54 843.707C648.439 843.019 648.344 842.331 648.262 841.656C646.223 825.774 647.751 803.816 649.998 783.334C651.494 774.803 653.553 766.259 656.305 757.861L657.157 755.28L658.073 752.718C658.66 751.002 659.355 749.323 659.998 747.62C660.327 746.774 660.674 746.055 661.009 745.26C661.349 744.484 661.659 743.72 662.075 742.894C662.877 741.266 663.61 739.657 664.5 737.997C667.903 731.403 671.691 724.727 675.58 718.096C683.376 704.826 691.565 691.645 699.721 678.722C703.831 672.248 707.91 665.825 711.938 659.477C712.954 657.805 713.964 656.133 714.968 654.473C715.473 653.64 715.972 652.814 716.477 651.981C716.969 651.148 717.5 650.334 717.942 649.476C719.772 646.075 721.628 642.724 723.384 639.361C730.284 625.826 735.593 612.109 739.583 598.826C743.573 585.538 746.225 572.678 747.93 560.721C748.283 557.724 748.637 554.79 748.978 551.919C749.173 550.486 749.249 549.06 749.35 547.653C749.451 546.246 749.546 544.858 749.647 543.489C749.742 542.119 749.836 540.763 749.931 539.431C750.026 538.1 750.013 536.775 750.051 535.475C750.108 532.875 750.158 530.345 750.209 527.903C750.221 525.455 750.101 523.089 750.051 520.798C750.019 519.656 749.981 518.533 749.95 517.435C749.918 516.337 749.893 515.258 749.792 514.198C749.622 512.091 749.457 510.065 749.306 508.134C749.224 507.169 749.148 506.229 749.066 505.307C749.028 504.847 748.99 504.392 748.946 503.944C748.889 503.496 748.832 503.055 748.776 502.619C748.308 499.143 747.866 496.038 747.469 493.35C747.418 493.016 747.368 492.681 747.317 492.359C747.254 492.038 747.191 491.722 747.128 491.413C747.001 490.795 746.875 490.202 746.762 489.64C746.515 488.51 746.294 487.488 746.092 486.567C745.259 482.901 744.666 480.989 744.344 481.04C744.022 481.096 743.965 483.122 744.129 486.851C744.179 487.778 744.236 488.82 744.299 489.962C744.337 490.53 744.375 491.129 744.413 491.747C744.432 492.057 744.457 492.372 744.476 492.7C744.483 493.022 744.489 493.356 744.501 493.691C744.565 496.385 744.666 499.477 744.792 502.922C744.805 503.351 744.823 503.793 744.836 504.235C744.83 504.676 744.83 505.124 744.823 505.585C744.817 506.494 744.811 507.427 744.805 508.38C744.798 510.286 744.792 512.273 744.786 514.349C744.805 515.384 744.741 516.444 744.691 517.523C744.64 518.602 744.59 519.7 744.539 520.817C744.419 523.051 744.369 525.367 744.192 527.752C743.978 530.13 743.763 532.591 743.536 535.115C743.409 536.377 743.34 537.658 743.169 538.952C742.999 540.245 742.822 541.551 742.645 542.883C742.469 544.208 742.292 545.552 742.115 546.908C741.932 548.265 741.78 549.641 741.503 551.023C741.01 553.78 740.512 556.607 740 559.49C737.702 570.968 734.501 583.234 730.057 595.81C725.612 608.379 719.943 621.271 712.821 633.865C711.016 636.995 709.109 640.106 707.247 643.26C706.799 644.056 706.256 644.806 705.757 645.576C705.246 646.34 704.741 647.11 704.229 647.879C703.213 649.413 702.19 650.959 701.167 652.504C696.881 658.694 692.543 664.96 688.175 671.276C679.462 683.953 670.718 696.92 662.284 710.164C659.815 714.051 657.391 717.963 655.011 721.932C655.585 718.79 656.166 715.616 656.753 712.385C657.517 708.101 658.262 703.716 659.007 699.261C659.689 694.768 660.472 690.25 661.065 685.581C662.423 676.318 663.363 666.594 664.039 656.669C664.632 646.813 664.885 636.705 664.803 626.419C664.519 605.855 662.663 584.56 658.906 563.346C655.207 542.113 649.815 521.006 643.773 500.31C637.719 479.614 631.109 459.27 624.834 439.268C624.24 437.381 623.653 435.507 623.066 433.627C623.659 431.318 624.398 428.453 625.269 425.071C627.75 415.36 631.292 401.478 635.231 384.706C639.158 367.935 643.445 348.248 647.012 326.927C650.592 305.612 653.212 282.6 654.077 259.461C654.127 256.565 654.178 253.669 654.228 250.779L654.304 246.444C654.285 244.999 654.26 243.554 654.241 242.109C654.197 239.226 654.146 236.342 654.102 233.477C653.969 230.606 653.843 227.748 653.71 224.896C653.066 213.507 651.899 202.332 650.333 191.586C647.176 170.095 642.271 150.376 637.012 133.857C631.728 117.331 626.159 103.973 621.91 94.8112C620.831 92.527 619.897 90.4763 619.013 88.7222C618.116 86.9743 617.346 85.4978 616.708 84.3052C615.433 81.9201 614.682 80.6834 614.537 80.7528C614.391 80.8222 614.84 82.204 615.812 84.7217C616.298 85.9837 616.917 87.5296 617.655 89.3342C618.381 91.1452 619.158 93.259 620.08 95.5936C623.691 104.97 628.584 118.473 633.18 135.012C637.75 151.55 641.949 171.161 644.443 192.394C645.674 203.013 646.513 214.024 646.848 225.218C646.898 228.019 646.955 230.827 647.006 233.648C646.98 236.468 646.949 239.295 646.924 242.128C646.911 243.542 646.892 244.961 646.879 246.381L646.696 250.634C646.576 253.473 646.456 256.313 646.337 259.146C644.929 281.849 641.841 304.407 637.858 325.356C633.88 346.311 629.24 365.701 625.017 382.271C621.955 394.241 619.133 404.734 616.797 413.278C613.444 402.197 610.237 391.237 607.245 380.447C605.887 375.664 604.637 370.907 603.362 366.193C602.131 361.467 600.919 356.792 599.713 352.166C597.352 342.84 595.041 333.71 592.794 324.826C588.324 307.063 584.182 290.273 580.559 274.757C576.935 259.247 573.822 245.006 571.423 232.392C569.018 219.779 567.332 208.768 566.518 199.827C566.114 195.359 565.931 191.416 565.956 188.09C565.988 184.765 566.24 182.071 566.594 180.096C566.96 178.133 567.377 176.922 567.629 176.247C567.762 175.931 567.837 175.666 567.882 175.521C567.919 175.357 567.907 175.231 567.85 175.18C567.793 175.123 567.68 175.13 567.509 175.206C567.332 175.256 567.105 175.445 566.802 175.723C566.215 176.31 565.407 177.559 564.681 179.61C563.961 181.667 563.355 184.487 562.982 187.945C562.61 191.403 562.459 195.479 562.534 200.079C562.686 209.285 563.734 220.555 565.495 233.414C567.257 246.28 569.731 260.755 572.724 276.486C575.716 292.222 579.233 309.221 583.078 327.173C585.022 336.139 587.023 345.358 589.063 354.772C590.117 359.479 591.171 364.243 592.282 369.039C593.419 373.828 594.53 378.681 595.748 383.545C600.502 403.037 605.944 423.045 611.689 443.294C617.422 463.542 623.457 484.018 628.887 504.556C634.303 525.095 639.001 545.729 642.05 566.198C645.15 586.661 646.425 606.947 646.242 626.565C646.084 636.376 645.623 646.012 644.84 655.432C644.152 662.928 643.319 670.254 642.239 677.454C641.059 671.453 639.575 665.377 637.668 659.319C634.032 647.873 629.114 636.799 623.457 626.382C617.782 615.964 611.5 606.083 605.136 596.681C598.772 587.273 592.383 578.281 586.398 569.58C584.921 567.403 583.456 565.245 582.004 563.112C580.603 560.973 579.151 558.872 577.825 556.758C576.474 554.651 575.123 552.568 573.867 550.486C573.229 549.445 572.591 548.417 571.966 547.388C571.36 546.353 570.754 545.325 570.161 544.303C565.382 536.125 561.328 528.2 558.102 520.722C554.864 513.245 552.458 506.229 550.722 499.919C550.337 498.335 549.964 496.802 549.605 495.319C549.207 493.842 548.967 492.397 548.702 491.015C548.456 489.627 548.153 488.302 547.963 487.028C547.793 485.747 547.622 484.529 547.471 483.374C547.307 482.213 547.13 481.115 547.073 480.08C546.978 479.046 546.896 478.068 546.814 477.165C546.738 476.257 546.612 475.417 546.581 474.648C546.549 473.878 546.511 473.177 546.467 472.546C546.297 470.029 546.05 468.653 545.722 468.622C545.394 468.596 544.983 469.915 544.485 472.458C544.358 473.095 544.232 473.808 544.093 474.591C543.954 475.38 543.916 476.244 543.822 477.178C543.746 478.118 543.664 479.128 543.582 480.2C543.468 481.279 543.481 482.428 543.481 483.646C543.481 484.863 543.487 486.151 543.487 487.501C543.512 488.851 543.658 490.258 543.746 491.729C543.847 493.205 543.935 494.745 544.182 496.322C544.396 497.906 544.605 499.553 544.851 501.256C546 508.027 547.881 515.618 550.646 523.701C553.399 531.784 557.035 540.352 561.417 549.155C565.786 557.963 570.925 567.012 576.468 576.167C587.522 594.491 600.104 613.516 609.757 633.606C614.581 643.639 618.546 653.956 621.304 664.291C624.038 674.633 625.49 685.171 626.323 695.487C626.734 700.649 626.999 705.766 627.144 710.795C627.182 712.051 627.22 713.3 627.258 714.543C627.277 715.786 627.296 717.017 627.315 718.247C627.371 720.702 627.334 723.125 627.34 725.516C627.315 730.514 627.182 735.36 626.967 740.035C626.822 739.638 626.677 739.24 626.519 738.843C626.26 738.218 626.002 737.6 625.743 736.969C625.225 735.719 624.701 734.457 624.177 733.195C623.602 731.952 623.022 730.703 622.447 729.447C622.157 728.823 621.866 728.192 621.576 727.567L620.623 725.712C619.985 724.475 619.347 723.238 618.71 721.995C618.022 720.777 617.327 719.56 616.639 718.342L615.597 716.518L614.486 714.733L612.251 711.168C611.462 710.013 610.667 708.858 609.877 707.703C608.324 705.375 606.632 703.179 604.985 701.021C601.664 696.705 598.318 692.648 595.218 688.711C592.112 684.773 589.246 680.956 586.796 677.22C585.552 675.353 584.467 673.516 583.444 671.705C582.459 669.882 581.531 668.109 580.767 666.355C577.579 659.376 576.392 653.148 576.07 648.801C575.761 644.44 576.108 641.929 575.729 641.86C575.47 641.803 574.441 644.22 574.075 648.826C573.715 653.401 574.296 660.209 577.061 667.888C577.718 669.813 578.551 671.769 579.447 673.781C580.382 675.775 581.405 677.82 582.56 679.858C584.852 683.953 587.566 688.105 590.477 692.301C593.387 696.497 596.487 700.75 599.479 705.123C600.969 707.319 602.466 709.508 603.823 711.798C604.511 712.934 605.206 714.07 605.9 715.206L607.845 718.702L608.81 720.449L609.707 722.235C610.3 723.421 610.9 724.608 611.494 725.794C612.037 726.999 612.586 728.204 613.129 729.403L613.943 731.195C614.189 731.801 614.436 732.413 614.682 733.012C615.174 734.224 615.66 735.429 616.146 736.622C616.582 737.839 617.018 739.051 617.453 740.25C617.668 740.849 617.883 741.449 618.097 742.048C618.306 742.648 618.482 743.253 618.678 743.853C619.057 745.052 619.429 746.244 619.802 747.424C622.1 755.173 623.59 762.65 624.512 769.389C623.552 777.207 622.466 784.009 621.475 789.606C612.889 784.457 602.573 778.399 591.752 772.342C563.784 756.687 524.061 753.892 517.912 742.711C511.763 731.53 560.426 687.916 562.105 687.36C529.661 690.717 519.03 727.617 505.608 728.173C501.952 728.324 495.551 720.55 488.177 708.795C488.151 708.517 488.126 708.246 488.101 707.962C487.905 705.754 487.703 703.476 487.495 701.135C487.406 698.781 487.312 696.365 487.217 693.897C487.179 692.661 487.097 691.411 487.097 690.149C487.11 688.887 487.129 687.613 487.148 686.325C487.16 685.038 487.179 683.745 487.192 682.439C487.198 681.789 487.204 681.132 487.211 680.47C487.23 679.814 487.286 679.157 487.324 678.495C487.482 675.851 487.646 673.176 487.81 670.481C488.385 665.112 488.865 659.635 489.837 654.221L490.481 650.151C490.576 649.469 490.721 648.801 490.866 648.132L491.289 646.119C491.567 644.781 491.851 643.443 492.129 642.106C492.268 641.437 492.406 640.774 492.545 640.106L492.754 639.109L493.013 638.124C493.694 635.506 494.364 632.9 495.033 630.332C495.336 629.038 495.771 627.789 496.15 626.539C496.542 625.29 496.927 624.047 497.306 622.816C497.691 621.586 498.07 620.362 498.442 619.15C498.878 617.958 499.307 616.778 499.73 615.611C500.595 613.282 501.378 610.973 502.249 608.771C503.164 606.587 504.054 604.461 504.913 602.404C505.355 601.382 505.74 600.347 506.195 599.375C506.656 598.403 507.11 597.451 507.552 596.517C514.56 581.506 520.734 572.224 520.071 571.782C519.8 571.599 517.988 573.726 514.995 577.625C514.623 578.111 514.231 578.628 513.821 579.171C513.619 579.442 513.404 579.714 513.196 580.004C513 580.3 512.798 580.597 512.59 580.906C511.769 582.137 510.885 583.474 509.938 584.9C509.465 585.62 508.985 586.358 508.48 587.115C507.994 587.885 507.445 588.648 506.984 589.488C506.024 591.153 505.014 592.908 503.96 594.731C503.436 595.646 502.899 596.586 502.35 597.539C501.807 598.498 501.333 599.514 500.809 600.524C499.787 602.562 498.726 604.676 497.634 606.84C496.592 609.029 495.639 611.339 494.597 613.673C494.086 614.847 493.568 616.027 493.05 617.226C492.59 618.444 492.122 619.674 491.655 620.917C491.188 622.16 490.715 623.416 490.241 624.678C489.774 625.946 489.256 627.208 488.865 628.521C488.031 631.133 487.192 633.77 486.339 636.44L486.024 637.443L485.752 638.459C485.576 639.14 485.392 639.815 485.216 640.497C484.856 641.86 484.496 643.229 484.136 644.598L483.593 646.655C483.41 647.343 483.221 648.031 483.088 648.725L482.211 652.902C480.929 658.461 480.152 664.121 479.3 669.686C479.003 672.488 478.707 675.264 478.41 678.009C478.341 678.697 478.252 679.378 478.202 680.066C478.164 680.754 478.126 681.435 478.088 682.117C478.012 683.48 477.937 684.83 477.861 686.174C477.785 687.518 477.715 688.849 477.64 690.168C477.633 690.313 477.633 690.452 477.633 690.597C460.146 658.347 441.825 615.409 441.825 604.612C441.825 586.724 463.081 525.777 477.065 499.502C491.049 473.228 553.146 410.602 553.146 410.602C553.146 410.602 525.734 421.783 498.884 450.298C472.034 478.812 447.98 534.724 447.98 534.724C447.98 534.724 449.659 519.631 441.269 496.145C432.879 472.66 391.483 358.602 391.483 358.602C391.483 358.602 395.959 338.474 408.263 323.381C420.568 308.287 492.173 261.317 494.97 243.428C483.783 261.878 452.456 278.095 426.161 295.983C399.867 313.872 388.68 335.123 388.68 335.123C388.68 335.123 399.311 203.733 409.936 190.311C380.845 222.183 378.048 332.328 378.048 332.328C378.048 332.328 348.957 254.609 337.769 231.13C341.128 251.259 372.454 344.626 372.454 344.626C372.454 344.626 326.942 308.963 291.613 300.255C320.957 307.808 366.135 352.362 374.127 373.14C382.518 394.947 413.844 454.21 413.844 454.21C413.844 454.21 370.213 422.9 353.988 426.257C381.956 434.643 402.095 453.655 418.32 477.695C434.545 501.736 435.663 556.531 426.711 562.122C417.758 567.712 408.813 544.233 401.54 533.046C394.267 521.865 389.791 479.374 359.582 467.069C372.448 478.812 381.4 510.677 381.4 510.677C381.4 510.677 363.502 498.934 346.16 484.958C328.817 470.982 236.511 402.216 210.222 406.129C242.111 413.398 320.427 477.134 320.427 477.134C320.427 477.134 298.608 471.543 289.662 477.695C313.716 474.9 323.23 482.724 357.909 507.327C392.594 531.929 404.898 555.408 411.609 575.536C418.32 595.665 424.476 644.308 424.476 644.308C424.476 644.308 412.171 648.782 392.587 644.87C373.01 640.957 334.966 616.355 306.437 604.612C277.907 592.87 256.65 588.396 237.628 586.162C218.607 583.929 169.382 607.969 168.265 620.829C194.559 592.314 253.292 592.876 254.971 598.467C234.832 601.262 200.708 621.952 204.067 643.197C207.981 629.221 231.479 599.59 266.72 604.619C301.961 609.648 348.95 642.081 374.683 654.94C400.416 667.8 426.149 667.8 426.149 667.8C426.149 667.8 424.469 672.273 443.491 705.261C452.658 721.162 463.252 737.057 472.835 749.134C472.583 748.97 472.337 748.806 472.084 748.636C462.677 742.515 451.389 735.795 438.756 729.573C432.437 726.469 425.77 723.535 418.901 720.777C412.001 718.089 404.879 715.641 397.657 713.508C390.403 711.445 383.061 709.716 375.763 708.366C368.446 707.11 361.204 706.151 354.152 705.653C340.048 704.643 326.791 705.293 315.591 706.845C304.385 708.442 295.243 710.896 289.018 713.054C287.453 713.572 286.057 714.032 284.883 714.531C283.696 715.01 282.692 715.427 281.884 715.78C280.268 716.487 279.435 716.935 279.492 717.086C279.548 717.238 280.495 717.105 282.213 716.714C283.071 716.518 284.119 716.266 285.35 715.95C286.569 715.61 288.002 715.313 289.593 714.966C295.925 713.471 305.054 711.723 316.083 710.821C327.106 709.956 340.023 709.981 353.66 711.584C360.478 712.379 367.461 713.609 374.487 715.118C381.495 716.714 388.522 718.67 395.447 720.923C402.348 723.257 409.141 725.876 415.719 728.709C422.266 731.612 428.611 734.678 434.621 737.884C446.635 744.32 457.368 751.172 466.314 757.394C471.547 761.053 476.169 764.486 480.096 767.509C472.242 767.565 464.426 767.628 456.667 767.546C452.519 767.477 448.39 767.408 444.217 767.243C440.032 767.079 435.764 766.865 431.427 766.657C422.74 766.24 413.756 765.817 404.482 765.925C399.854 765.963 395.144 766.158 390.39 766.556C388.023 766.726 385.624 767.016 383.238 767.294C380.839 767.628 378.446 767.963 376.072 768.398C366.583 770.115 357.65 772.664 349.209 775.364C340.775 778.071 332.782 780.904 325.08 783.384C317.409 785.763 309.852 787.94 302.264 789.7C287.131 793.272 272.187 795.506 257.926 796.679C243.664 797.84 230.078 797.985 217.552 797.411C214.427 797.247 211.365 796.995 208.366 796.805C207.615 796.755 206.87 796.704 206.132 796.654C205.759 796.629 205.393 796.603 205.027 796.578C204.661 796.54 204.294 796.502 203.928 796.458C202.47 796.301 201.03 796.149 199.61 795.998C198.189 795.846 196.782 795.701 195.393 795.556C194.698 795.487 194.01 795.411 193.328 795.341C192.646 795.247 191.971 795.146 191.302 795.051C188.619 794.673 186.005 794.3 183.479 793.941C182.848 793.852 182.217 793.764 181.598 793.676C180.979 793.562 180.367 793.455 179.761 793.348C178.543 793.127 177.349 792.918 176.175 792.704C173.827 792.275 171.547 791.903 169.369 791.492C165.032 790.571 161.048 789.726 157.45 788.962C153.877 788.079 150.676 787.322 147.866 786.691C146.458 786.4 145.183 786.028 144.003 785.738C142.822 785.441 141.742 785.176 140.777 784.955C136.894 784.066 134.735 783.807 134.558 784.261C134.387 784.722 136.206 785.908 139.792 787.757C140.688 788.218 141.698 788.722 142.809 789.259C143.927 789.795 145.139 790.407 146.49 790.943C149.18 792.067 152.292 793.329 155.802 794.717C159.331 796.01 163.296 797.323 167.608 798.787C169.78 799.455 172.059 800.093 174.42 800.774C175.601 801.115 176.806 801.456 178.031 801.809C178.644 801.986 179.262 802.156 179.887 802.333C180.519 802.484 181.15 802.636 181.794 802.793C184.357 803.405 187.009 804.036 189.73 804.693C190.411 804.857 191.1 805.014 191.794 805.179C192.495 805.317 193.196 805.45 193.903 805.589C195.317 805.86 196.756 806.144 198.208 806.422C199.667 806.699 201.144 806.983 202.634 807.273C203.006 807.343 203.385 807.419 203.758 807.488C204.137 807.545 204.515 807.602 204.894 807.658C205.658 807.772 206.422 807.885 207.192 808.005C210.273 808.453 213.43 808.965 216.668 809.387C229.617 810.996 243.803 811.854 258.847 811.615C273.892 811.375 289.795 809.987 306.07 807.128C314.215 805.728 322.434 803.86 330.698 801.778C338.918 799.62 347.081 797.203 355.238 795.051C363.395 792.9 371.564 791.044 379.708 790.003C381.741 789.732 383.78 789.555 385.82 789.372C387.871 789.246 389.923 789.095 391.994 789.051C396.123 788.912 400.29 788.943 404.488 789.114C412.878 789.423 421.376 790.218 429.981 791.038C434.148 791.436 438.34 791.839 442.57 792.199C436.042 794.092 429.337 796.471 422.531 799.146C420.606 799.948 418.661 800.755 416.704 801.569C414.753 802.396 412.834 803.342 410.877 804.232C409.905 804.686 408.926 805.141 407.948 805.595C406.988 806.087 406.022 806.579 405.056 807.078C403.131 808.081 401.167 809.04 399.248 810.1C391.546 814.296 384.027 819.092 376.754 824.216C369.538 829.402 362.745 834.917 356.034 840.085C349.323 845.265 342.694 850.073 335.894 854.087C322.277 862.163 308.293 867.653 296.127 871.817C290.035 873.893 284.384 875.673 279.34 877.174C274.283 878.67 269.877 879.97 266.24 881.042C258.955 883.175 254.8 884.5 254.883 884.822C254.958 885.137 259.27 884.456 266.733 882.973C270.457 882.222 274.978 881.276 280.136 880.071C285.3 878.884 291.089 877.414 297.358 875.628C309.884 872.044 324.398 867.079 338.874 859.235C346.122 855.33 353.205 850.572 360.175 845.562C367.158 840.558 374.083 835.315 381.217 830.532C388.395 825.818 395.769 821.433 403.288 817.622C405.164 816.656 407.076 815.798 408.951 814.883C409.892 814.435 410.833 813.987 411.767 813.545C412.72 813.135 413.674 812.732 414.621 812.321C416.521 811.52 418.383 810.668 420.284 809.93C422.184 809.204 424.072 808.485 425.94 807.766C433.472 805.052 440.846 802.699 447.967 800.989C451.503 800.036 455 799.355 458.365 798.642C460.045 798.257 461.718 798.011 463.353 797.727C464.988 797.449 466.592 797.178 468.164 796.913C477.665 795.487 486.036 794.881 492.747 794.679C497.293 794.881 501.775 795.114 506.176 795.423C514.086 795.979 521.751 796.755 529.087 797.846C530.911 798.143 532.729 798.433 534.529 798.724C536.303 799.077 538.07 799.43 539.825 799.777L541.139 800.036C541.574 800.131 541.997 800.244 542.426 800.345C543.285 800.553 544.137 800.762 544.983 800.964C545.836 801.165 546.682 801.374 547.521 801.576C548.361 801.79 549.175 802.049 549.996 802.282C551.631 802.774 553.279 803.197 554.864 803.727C556.442 804.27 558.008 804.813 559.561 805.349C560.356 805.608 561.076 805.898 561.789 806.188C562.509 806.485 563.235 806.737 563.936 807.065C564.643 807.374 565.344 807.69 566.044 807.999C566.745 808.308 567.421 808.662 568.109 808.99C569.485 809.627 570.805 810.384 572.13 811.072C573.418 811.842 574.731 812.53 575.963 813.337C578.482 814.852 580.824 816.543 583.103 818.202C587.585 821.616 591.556 825.25 594.978 828.942C598.368 832.652 601.203 836.413 603.482 840.066C604.808 842.192 605.944 844.281 606.91 846.3C607.756 863.482 606.948 880.531 606.834 882.784C606.664 881.97 604.517 879.503 585.003 878.575C561.505 877.458 540.248 888.64 501.094 891.435C466.813 893.883 462.974 884.336 462.545 881.913C462.892 884.683 465.588 897.391 485.986 900.376C508.922 903.733 553.115 897.019 580.527 891.99C607.939 886.961 611.853 903.733 611.853 903.733L621.923 961.878C621.923 961.878 578.848 945.662 556.473 935.598C534.099 925.533 515.077 922.738 488.227 925.533C461.377 928.329 464.729 934.481 441.238 936.715C422.98 938.45 383.932 931.503 371.495 921.804C385.624 940.923 416.313 946.318 420.322 944.646C406.66 951.726 363.408 943.996 350.611 947.334C337.744 950.691 318.167 967.463 325.995 970.819C334.947 952.369 351.728 954.603 374.102 956.843C396.476 959.083 422.209 956.282 452.418 947.896C482.627 939.51 485.986 942.867 494.376 940.627C480.392 945.656 463.05 976.41 463.05 976.41C463.05 976.41 491.018 946.779 506.681 940.627C522.344 934.475 542.483 943.984 550.874 947.896C536.745 947.896 519.894 956.995 512.205 964.926C518.386 959.19 534.87 951.48 560.943 952.925C591.152 954.603 626.393 997.655 626.393 997.655C626.393 997.655 624.158 1003.81 614.088 1005.49C604.019 1007.16 592.832 999.895 582.2 999.334C571.568 998.772 564.857 992.065 557.585 988.708C563.74 999.334 569.889 998.772 569.889 998.772C569.889 998.772 554.226 1001.01 547.515 1008.84C560.381 1001.01 581.076 1001.57 591.146 1006.6C576.6 1008.84 560.937 1023.94 560.937 1023.94C560.937 1023.94 572.124 1013.87 590.028 1011.64C607.927 1009.4 614.057 1015.42 619.12 1021.7C641.261 1049.18 631.159 1171.08 611.285 1183.44C597.586 1191.97 596.74 1187.92 585.552 1192.39C574.365 1196.86 576.6 1208.05 568.772 1214.75C560.943 1221.46 550.874 1218.11 537.445 1218.11C524.017 1218.11 524.017 1233.77 524.017 1233.77C525.134 1229.29 546.391 1231.53 560.937 1227.06C575.483 1222.58 597.857 1210.29 596.739 1218.11C595.622 1225.94 563.172 1236 563.172 1236C563.172 1236 604.568 1228.17 613.52 1220.34C622.472 1212.51 643.729 1210.28 645.964 1216.99C648.199 1223.69 620.231 1233.76 620.231 1233.76C620.231 1233.76 641.488 1235.99 659.392 1225.93C677.29 1215.86 680.649 1215.86 694.077 1221.45C704.463 1225.78 696.779 1232.11 692.758 1234.76C697.499 1231.87 709.4 1224.5 716.452 1219.22C725.404 1212.51 742.184 1222.58 754.489 1228.17C766.794 1233.76 781.339 1232.64 781.339 1232.64C781.339 1232.64 756.724 1219.22 761.2 1214.75C765.676 1210.29 793.644 1227.05 809.307 1231.53C824.97 1236 842.875 1228.17 863.008 1232.64C857.414 1228.17 837.275 1218.1 822.729 1219.22C808.183 1220.34 811.51 1212.96 800.355 1203.57C791.737 1196.31 783.593 1200.23 770.146 1186.79C757.734 1174.36 732.298 1056.63 747.772 1020.76Z" fill="#EEEEEE"/>
<path d="M1017.4 449.485C1028.43 449.485 1037.37 440.55 1037.37 429.527C1037.37 418.503 1028.43 409.568 1017.4 409.568C1006.37 409.568 997.433 418.503 997.433 429.527C997.439 440.55 1006.38 449.485 1017.4 449.485Z" fill="#FFA6AF"/>
<path d="M1215.72 785.701C1237.22 785.701 1254.67 768.273 1254.67 746.775C1254.67 725.278 1237.23 707.85 1215.72 707.85C1194.21 707.85 1176.77 725.278 1176.77 746.775C1176.77 768.273 1194.21 785.701 1215.72 785.701Z" fill="#1FCBD4"/>
<path d="M1066.51 926.377C1088.01 926.377 1105.45 908.949 1105.45 887.451C1105.45 865.953 1088.02 848.525 1066.51 848.525C1045 848.525 1027.56 865.953 1027.56 887.451C1027.57 908.949 1045 926.377 1066.51 926.377Z" fill="#1FCBD4"/>
<path d="M455.672 1042.79C477.182 1042.79 494.619 1025.36 494.619 1003.86C494.619 982.363 477.182 964.936 455.672 964.936C434.163 964.936 416.726 982.363 416.726 1003.86C416.726 1025.36 434.163 1042.79 455.672 1042.79Z" fill="#F46D70"/>
<path d="M559.774 711.797C581.283 711.797 598.72 694.369 598.72 672.871C598.72 651.373 581.283 633.945 559.774 633.945C538.265 633.945 520.827 651.373 520.827 672.871C520.827 694.369 538.265 711.797 559.774 711.797Z" fill="#404E73"/>
<path d="M1070.23 244.617C1091.73 244.617 1109.17 227.189 1109.17 205.691C1109.17 184.194 1091.74 166.766 1070.23 166.766C1048.72 166.766 1031.28 184.194 1031.28 205.691C1031.28 227.189 1048.72 244.617 1070.23 244.617Z" fill="#F1229A"/>
<path d="M865.66 143.117C887.617 143.117 905.414 125.33 905.414 103.384C905.414 81.438 887.617 63.6504 865.66 63.6504C843.702 63.6504 825.905 81.438 825.905 103.384C825.905 125.323 843.702 143.117 865.66 143.117Z" fill="#A795B4"/>
<path d="M671.335 355.358C695.231 355.358 714.6 336 714.6 312.117C714.6 288.234 695.231 268.875 671.335 268.875C647.44 268.875 628.071 288.234 628.071 312.117C628.077 336 647.446 355.358 671.335 355.358Z" fill="#6F3DA2"/>
<path d="M551.827 216.213C574.675 216.213 593.198 197.7 593.198 174.864C593.198 152.029 574.675 133.516 551.827 133.516C528.979 133.516 510.456 152.029 510.456 174.864C510.456 197.7 528.973 216.213 551.827 216.213Z" fill="#86C2DA"/>
<path d="M183.253 627.973C187.256 605.491 172.268 584.018 149.774 580.011C127.28 576.005 105.796 590.991 101.787 613.473C97.7841 635.955 112.772 657.428 135.266 661.434C157.76 665.441 179.244 650.455 183.253 627.973Z" fill="#3257BC"/>
<path d="M437.042 496.945C459.89 496.945 478.413 478.432 478.413 455.597C478.413 432.761 459.89 414.248 437.042 414.248C414.195 414.248 395.671 432.761 395.671 455.597C395.665 478.432 414.188 496.945 437.042 496.945Z" fill="#F1229A"/>
<path d="M497.062 301.619C519.909 301.619 538.432 283.106 538.432 260.271C538.432 237.435 519.909 218.922 497.062 218.922C474.214 218.922 455.691 237.435 455.691 260.271C455.691 283.106 474.207 301.619 497.062 301.619Z" fill="#A795B4"/>
<path d="M1168.22 620.729C1191.08 620.729 1209.6 602.215 1209.6 579.38C1209.6 556.544 1191.08 538.031 1168.22 538.031C1145.37 538.031 1126.85 556.544 1126.85 579.38C1126.85 602.215 1145.37 620.729 1168.22 620.729Z" fill="#FFBC79"/>
<path d="M364.501 941.568C387.349 941.568 405.872 923.055 405.872 900.22C405.872 877.384 387.349 858.871 364.501 858.871C341.653 858.871 323.13 877.384 323.13 900.22C323.13 923.055 341.647 941.568 364.501 941.568Z" fill="#F1229A"/>
<path d="M252.447 928.809C275.295 928.809 293.818 910.302 293.818 887.46C293.818 864.625 275.295 846.111 252.447 846.111C229.599 846.111 211.076 864.625 211.076 887.46C211.07 910.296 229.593 928.809 252.447 928.809Z" fill="#FB4653"/>
<path d="M121.013 807.088C143.86 807.088 162.383 788.575 162.383 765.739C162.383 742.897 143.86 724.391 121.013 724.391C98.1649 724.391 79.6418 742.904 79.6418 765.739C79.6355 788.575 98.1649 807.088 121.013 807.088Z" fill="#FB4653"/>
<path d="M50.8954 550.256C73.7431 550.256 92.2726 531.743 92.2726 508.907C92.2726 486.065 73.7494 467.559 50.8954 467.559C28.0414 467.559 9.52472 486.072 9.52472 508.907C9.51841 531.743 28.0414 550.256 50.8954 550.256Z" fill="#F68B58"/>
<path d="M948.672 328.126C972.561 328.126 991.937 308.767 991.937 284.884C991.937 261.001 972.561 241.643 948.672 241.643C924.776 241.643 905.407 261.001 905.407 284.884C905.407 308.767 924.782 328.126 948.672 328.126Z" fill="#3257BC"/>
<path d="M1194.26 384.322C1217.11 384.322 1235.63 365.809 1235.63 342.974C1235.63 320.138 1217.11 301.625 1194.26 301.625C1171.41 301.625 1152.89 320.138 1152.89 342.974C1152.89 365.809 1171.41 384.322 1194.26 384.322Z" fill="#F46D70"/>
<path d="M888.778 418.739C912.421 418.739 931.588 399.582 931.588 375.951C931.588 352.321 912.421 333.164 888.778 333.164C865.135 333.164 845.968 352.321 845.968 375.951C845.968 399.582 865.135 418.739 888.778 418.739Z" fill="#F46D70"/>
<path d="M518.31 598.808C542.995 598.808 563.015 578.806 563.015 554.128C563.015 529.456 543.002 509.447 518.31 509.447C493.619 509.447 473.606 529.45 473.606 554.128C473.606 578.806 493.619 598.808 518.31 598.808Z" fill="#6F3DA2"/>
<path d="M586.664 457.383C609.511 457.383 628.034 438.87 628.034 416.034C628.034 393.199 609.511 374.686 586.664 374.686C563.816 374.686 545.293 393.199 545.293 416.034C545.293 438.87 563.816 457.383 586.664 457.383Z" fill="#FFBC79"/>
<path d="M946.972 687.711C971.114 687.711 990.685 668.151 990.685 644.022C990.685 619.893 971.114 600.332 946.972 600.332C922.83 600.332 903.259 619.893 903.259 644.022C903.259 668.151 922.837 687.711 946.972 687.711Z" fill="#6F3DA2"/>
<path d="M335.644 450.647C356.762 450.647 373.884 433.535 373.884 412.428C373.884 391.321 356.762 374.209 335.644 374.209C314.526 374.209 297.405 391.321 297.405 412.428C297.411 433.535 314.526 450.647 335.644 450.647Z" fill="#FFA6AF"/>
<path d="M1113.92 729.783C1139.99 729.783 1161.14 708.651 1161.14 682.585C1161.14 656.519 1140 635.387 1113.92 635.387C1087.83 635.387 1066.7 656.519 1066.7 682.585C1066.7 708.651 1087.84 729.783 1113.92 729.783Z" fill="#A795B4"/>
<path d="M758.463 261.063C781.311 261.063 799.834 242.549 799.834 219.714C799.834 196.878 781.311 178.365 758.463 178.365C735.615 178.365 717.092 196.878 717.092 219.714C717.092 242.549 735.615 261.063 758.463 261.063Z" fill="#FFBC79"/>
<path d="M593.213 102.578C614.723 102.578 632.16 85.1501 632.16 63.6523C632.16 42.1545 614.723 24.7266 593.213 24.7266C571.704 24.7266 554.267 42.1545 554.267 63.6523C554.267 85.1564 571.704 102.578 593.213 102.578Z" fill="#FFA6AF"/>
<path d="M202.665 434.098C224.174 434.098 241.611 416.67 241.611 395.172C241.611 373.674 224.174 356.246 202.665 356.246C181.155 356.246 163.718 373.674 163.718 395.172C163.718 416.67 181.155 434.098 202.665 434.098Z" fill="#F1229A"/>
<path d="M785.115 639.428C802.029 639.428 815.741 625.722 815.741 608.818C815.741 591.914 802.029 578.209 785.115 578.209C768.202 578.209 754.49 591.914 754.49 608.818C754.49 625.722 768.202 639.428 785.115 639.428Z" fill="#3257BC"/>
<path d="M336.351 237.416C357.861 237.416 375.298 219.988 375.298 198.49C375.298 176.992 357.861 159.564 336.351 159.564C314.842 159.564 297.405 176.992 297.405 198.49C297.405 219.988 314.848 237.416 336.351 237.416Z" fill="#1FCBD4"/>
<path d="M1093.92 418.193C1112.64 418.193 1127.83 403.018 1127.83 384.303C1127.83 365.587 1112.64 350.412 1093.92 350.412C1075.19 350.412 1060.01 365.587 1060.01 384.303C1060.01 403.018 1075.19 418.193 1093.92 418.193Z" fill="#A795B4"/>
<path d="M414.265 209.74C431.602 209.74 445.655 195.694 445.655 178.367C445.655 161.04 431.602 146.994 414.265 146.994C396.929 146.994 382.876 161.04 382.876 178.367C382.876 195.694 396.929 209.74 414.265 209.74Z" fill="#F46D70"/>
<path d="M27.7036 729.339C42.6029 729.339 54.6865 717.262 54.6865 702.371C54.6865 687.473 42.6029 675.402 27.7036 675.402C12.8043 675.402 0.720581 687.473 0.720581 702.371C0.720581 717.262 12.8043 729.339 27.7036 729.339Z" fill="#F46D70"/>
<path d="M545.389 494.527C560.294 494.527 572.371 482.456 572.371 467.558C572.371 452.667 560.294 440.59 545.389 440.59C530.489 440.59 518.406 452.667 518.406 467.558C518.406 482.456 530.483 494.527 545.389 494.527Z" fill="#A795B4"/>
<path d="M362.772 741.64C377.677 741.64 389.754 729.569 389.754 714.672C389.754 699.774 377.677 687.703 362.772 687.703C347.866 687.703 335.789 699.774 335.789 714.672C335.789 729.569 347.866 741.64 362.772 741.64Z" fill="#F46D70"/>
<path d="M79.6778 849.79C92.096 849.79 102.166 839.725 102.166 827.314C102.166 814.902 92.096 804.838 79.6778 804.838C67.2596 804.838 57.1899 814.902 57.1899 827.314C57.1899 839.725 67.2596 849.79 79.6778 849.79Z" fill="#A795B4"/>
<path d="M455.694 903.559C468.112 903.559 478.181 893.495 478.181 881.083C478.181 868.672 468.112 858.607 455.694 858.607C443.275 858.607 433.206 868.672 433.206 881.083C433.206 893.495 443.275 903.559 455.694 903.559Z" fill="#A795B4"/>
<path d="M202.686 680.868C215.104 680.868 225.174 670.81 225.174 658.392C225.174 645.98 215.104 635.916 202.686 635.916C190.268 635.916 180.198 645.98 180.198 658.392C180.198 670.803 190.268 680.868 202.686 680.868Z" fill="#FFBC79"/>
<path d="M255.027 254.418C267.445 254.418 277.515 244.361 277.515 231.943C277.515 219.531 267.445 209.467 255.027 209.467C242.609 209.467 232.539 219.531 232.539 231.943C232.539 244.361 242.609 254.418 255.027 254.418Z" fill="#F68B58"/>
<path d="M130.723 310.327C143.141 310.327 153.211 300.262 153.211 287.851C153.211 275.439 143.141 265.375 130.723 265.375C118.305 265.375 108.235 275.439 108.235 287.851C108.241 300.269 118.305 310.327 130.723 310.327Z" fill="#6F3DA2"/>
<path d="M274.953 737.149C287.371 737.149 297.441 727.091 297.441 714.673C297.441 702.262 287.371 692.197 274.953 692.197C262.535 692.197 252.465 702.262 252.465 714.673C252.472 727.085 262.535 737.149 274.953 737.149Z" fill="#E3D5C3"/>
<path d="M108.682 417.661C121.1 417.661 131.17 407.596 131.17 395.185C131.17 382.773 121.1 372.709 108.682 372.709C96.2638 372.709 86.1942 382.767 86.1942 395.185C86.2005 407.603 96.2638 417.661 108.682 417.661Z" fill="#F1229A"/>
<path d="M758.517 44.9517C770.935 44.9517 781.005 34.8874 781.005 22.4758C781.005 10.0643 770.935 0 758.517 0C746.099 0 736.029 10.0643 736.029 22.4758C736.029 34.8874 746.099 44.9517 758.517 44.9517Z" fill="#FBA660"/>
<path d="M836.723 262.413C849.141 262.413 859.211 252.355 859.211 239.937C859.211 227.525 849.141 217.461 836.723 217.461C824.305 217.461 814.235 227.525 814.235 239.937C814.235 252.348 824.305 262.413 836.723 262.413Z" fill="#1FCBD4"/>
<path d="M178.92 746.595C187.317 746.595 194.123 739.793 194.123 731.401C194.123 723.009 187.317 716.207 178.92 716.207C170.524 716.207 163.718 723.009 163.718 731.401C163.718 739.793 170.524 746.595 178.92 746.595Z" fill="#5B69BF"/>
<path d="M545.278 1019.06C553.675 1019.06 560.48 1012.26 560.48 1003.87C560.48 995.476 553.675 988.674 545.278 988.674C536.881 988.674 530.076 995.476 530.076 1003.87C530.076 1012.27 536.881 1019.06 545.278 1019.06Z" fill="#5B69BF"/>
<path d="M287.424 316.789C295.821 316.789 302.627 309.987 302.627 301.595C302.627 293.202 295.821 286.4 287.424 286.4C279.028 286.4 272.222 293.202 272.222 301.595C272.222 309.987 279.028 316.789 287.424 316.789Z" fill="#FBA660"/>
<path d="M399.07 131.791C407.466 131.791 414.272 124.989 414.272 116.597C414.272 108.204 407.466 101.402 399.07 101.402C390.673 101.402 383.867 108.204 383.867 116.597C383.867 124.989 390.673 131.791 399.07 131.791Z" fill="#FB4653"/>
<path d="M362.798 482.75C371.194 482.75 378 475.948 378 467.556C378 459.163 371.194 452.361 362.798 452.361C354.401 452.361 347.595 459.163 347.595 467.556C347.595 475.948 354.401 482.75 362.798 482.75Z" fill="#FB4653"/>
<path d="M45.3684 628.013C53.7651 628.013 60.5708 621.211 60.5708 612.819C60.5708 604.427 53.7651 597.625 45.3684 597.625C36.9718 597.625 30.166 604.427 30.166 612.819C30.1724 621.211 36.9781 628.013 45.3684 628.013Z" fill="#86C2DA"/>
<path d="M287.424 497.947C295.821 497.947 302.627 491.145 302.627 482.753C302.627 474.361 295.821 467.559 287.424 467.559C279.028 467.559 272.222 474.361 272.222 482.753C272.222 491.145 279.028 497.947 287.424 497.947Z" fill="#1FCBD4"/>
<path d="M326.663 984.535C335.059 984.535 341.865 977.733 341.865 969.341C341.865 960.949 335.059 954.146 326.663 954.146C318.266 954.146 311.46 960.949 311.46 969.341C311.467 977.733 318.272 984.535 326.663 984.535Z" fill="#1FCBD4"/>
<path d="M1183.58 905.084C1191.97 905.084 1198.78 898.282 1198.78 889.889C1198.78 881.497 1191.98 874.695 1183.58 874.695C1175.19 874.695 1168.38 881.497 1168.38 889.889C1168.38 898.282 1175.19 905.084 1183.58 905.084Z" fill="#86C2DA"/>
<path d="M1259.81 453.074C1268.2 453.074 1275.01 446.272 1275.01 437.88C1275.01 429.488 1268.2 422.686 1259.81 422.686C1251.42 422.686 1244.61 429.488 1244.61 437.88C1244.61 446.272 1251.41 453.074 1259.81 453.074Z" fill="#86C2DA"/>
<path d="M1201.77 262.322C1210.16 262.322 1216.97 255.52 1216.97 247.128C1216.97 238.736 1210.16 231.934 1201.77 231.934C1193.38 231.934 1186.56 238.736 1186.56 247.128C1186.57 255.52 1193.38 262.322 1201.77 262.322Z" fill="#5B69BF"/>
<path d="M749.355 501.893C759.936 501.893 768.516 493.318 768.516 482.742C768.516 472.167 759.936 463.592 749.355 463.592C738.774 463.592 730.195 472.167 730.195 482.742C730.201 493.324 738.774 501.893 749.355 501.893Z" fill="#FB4653"/>
<path d="M161.687 900.219C172.269 900.219 180.848 891.643 180.848 881.074C180.848 870.499 172.269 861.924 161.687 861.924C151.106 861.924 142.527 870.499 142.527 881.074C142.533 891.65 151.106 900.219 161.687 900.219Z" fill="#86C2DA"/>
<path d="M1113.02 319.489C1123.59 319.489 1132.18 310.913 1132.18 300.338C1132.18 289.763 1123.6 281.188 1113.02 281.188C1102.44 281.188 1093.86 289.763 1093.86 300.338C1093.86 310.913 1102.44 319.489 1113.02 319.489Z" fill="#E3D5C3"/>
<path d="M1045.73 784.885C1056.31 784.885 1064.89 776.31 1064.89 765.734C1064.89 755.159 1056.31 746.584 1045.73 746.584C1035.16 746.584 1026.57 755.159 1026.57 765.734C1026.58 776.31 1035.16 784.885 1045.73 784.885Z" fill="#F68B58"/>
<path d="M691.76 767.014C702.334 767.014 710.92 758.439 710.92 747.863C710.92 737.288 702.341 728.713 691.76 728.713C681.179 728.713 672.599 737.288 672.599 747.863C672.599 758.445 681.185 767.014 691.76 767.014Z" fill="#F68B58"/>
<path d="M1254.38 672.774C1264.96 672.774 1273.54 664.199 1273.54 653.623C1273.54 643.048 1264.96 634.473 1254.38 634.473C1243.81 634.473 1235.22 643.048 1235.22 653.623C1235.22 664.205 1243.8 672.774 1254.38 672.774Z" fill="#5B69BF"/>
<path d="M1253.26 545.754C1263.83 545.754 1272.42 537.179 1272.42 526.604C1272.42 516.028 1263.84 507.453 1253.26 507.453C1242.68 507.453 1234.09 516.028 1234.09 526.604C1234.1 537.179 1242.68 545.754 1253.26 545.754Z" fill="#FB4653"/>
<path d="M785.183 688.953C795.758 688.953 804.344 680.378 804.344 669.803C804.344 659.227 795.764 650.652 785.183 650.652C774.602 650.652 766.022 659.227 766.022 669.803C766.022 680.385 774.608 688.953 785.183 688.953Z" fill="#FB4653"/>
<path d="M963.224 155.336C977.082 155.336 988.319 144.104 988.319 130.254C988.319 116.403 977.088 105.172 963.224 105.172C949.36 105.172 938.129 116.403 938.129 130.254C938.129 144.11 949.366 155.336 963.224 155.336Z" fill="#F68B58"/>
<path d="M997.345 877.296C1011.2 877.296 1022.44 866.071 1022.44 852.215C1022.44 838.364 1011.21 827.133 997.345 827.133C983.481 827.133 972.25 838.364 972.25 852.215C972.25 866.071 983.481 877.296 997.345 877.296Z" fill="#FBA660"/>
<path d="M665.01 84.0589C675.591 84.0589 684.171 75.4837 684.171 64.9083C684.171 54.333 675.591 45.7578 665.01 45.7578C654.429 45.7578 645.849 54.333 645.849 64.9083C645.849 75.4837 654.429 84.0589 665.01 84.0589Z" fill="#5B69BF"/>
<path d="M658.32 174.856C668.901 174.856 677.481 166.281 677.481 155.705C677.481 145.13 668.901 136.555 658.32 136.555C647.739 136.555 639.16 145.13 639.16 155.705C639.16 166.281 647.739 174.856 658.32 174.856Z" fill="#FB4653"/>
</svg>
